<svg width="727" height="320" xmlns="http://www.w3.org/2000/svg" xmlns:xlink="http://www.w3.org/1999/xlink"><defs><linearGradient x1="-32.2%" y1="34.8%" x2="104.6%" y2="63.9%" id="a"><stop stop-color="#BEC5DF" offset="0%"/><stop stop-color="#B5BFE2" offset="100%"/></linearGradient><linearGradient x1="-9.5%" y1="28.7%" x2="62.5%" y2="75.8%" id="b"><stop stop-color="#7787C2" offset="0%"/><stop stop-color="#7787C3" stop-opacity="0" offset="100%"/></linearGradient><radialGradient cx="1.1%" cy="99.8%" fx="1.1%" fy="99.8%" r="245.5%" gradientTransform="matrix(.37378 -.13416 .0506 .99096 0 0)" id="c"><stop stop-color="#7787C2" offset="0%"/><stop stop-color="#7787C3" stop-opacity="0" offset="100%"/></radialGradient><linearGradient x1="17.7%" y1="38.9%" x2="79.6%" y2="65.8%" id="d"><stop stop-color="#FEFEFF" offset="0%"/><stop stop-color="#F1F6FF" offset="100%"/></linearGradient><linearGradient x1="100%" y1="50.8%" x2="0%" y2="50%" id="e"><stop stop-color="#CBD3E0" offset="0%"/><stop stop-color="#90A1BD" offset="23.5%"/><stop stop-color="#DCE0E8" offset="46.6%"/><stop stop-color="#CAD1DC" offset="69.2%"/><stop stop-color="#EBEEF2" offset="100%"/></linearGradient><linearGradient x1="7.9%" y1="32.2%" x2="84.7%" y2="67.8%" id="f"><stop stop-color="#8892BD" offset="0%"/><stop stop-color="#555A6F" offset="100%"/></linearGradient><radialGradient cx="7.2%" cy="94.4%" fx="7.2%" fy="94.4%" r="186%" gradientTransform="scale(.37719 1) rotate(-26.4 .1 .7)" id="g"><stop stop-color="#7787C2" offset="0%"/><stop stop-color="#7787C3" stop-opacity="0" offset="100%"/></radialGradient><linearGradient x1="17.7%" y1="38.3%" x2="79.6%" y2="66.6%" id="h"><stop stop-color="#FEFEFF" offset="0%"/><stop stop-color="#F1F6FF" offset="100%"/></linearGradient><path id="i" d="M47.3 4.1L54.9 20 34.8 31.6 7.3 27.3 0 11.3 20 0z"/><linearGradient x1="7.9%" y1="13.3%" x2="84.7%" y2="86.7%" id="j"><stop stop-color="#8892BD" offset="0%"/><stop stop-color="#555A6F" offset="100%"/></linearGradient><linearGradient x1="110.8%" y1="49%" x2="0%" y2="50%" id="l"><stop stop-color="#CBD3E0" offset="0%"/><stop stop-color="#90A1BD" offset="23.5%"/><stop stop-color="#DCE0E8" offset="46.6%"/><stop stop-color="#CAD1DC" offset="69.2%"/><stop stop-color="#EBEEF2" offset="100%"/></linearGradient><path id="m" d="M2 61.3l-1.3 29h24.5l3.7-3.3 3 3.4h28.6L74 52.8 86.7 54l3.3-5.1 5 5.1 27-19.5-5-33.6z"/><linearGradient x1="-32.2%" y1="35.3%" x2="104.6%" y2="63.4%" id="o"><stop stop-color="#BEC5DF" offset="0%"/><stop stop-color="#B5BFE2" offset="100%"/></linearGradient><linearGradient x1="-9.5%" y1="33.9%" x2="62.5%" y2="69.5%" id="p"><stop stop-color="#7787C2" offset="0%"/><stop stop-color="#7787C3" stop-opacity="0" offset="100%"/></linearGradient><radialGradient cx="-4.6%" cy="95.8%" fx="-4.6%" fy="95.8%" r="98.4%" gradientTransform="scale(1 .93053) rotate(-6.2 .6 1)" id="q"><stop stop-color="#7787C2" offset="0%"/><stop stop-color="#7787C3" stop-opacity="0" offset="100%"/></radialGradient><linearGradient x1="50%" y1="0%" x2="50%" y2="100%" id="r"><stop stop-color="#F1F6FF" offset="0%"/><stop stop-color="#D5E1F7" offset="100%"/></linearGradient><linearGradient x1="18.7%" y1="45.2%" x2="83.1%" y2="54.5%" id="s"><stop stop-color="#FEFEFF" offset="0%"/><stop stop-color="#F1F6FF" offset="100%"/></linearGradient><linearGradient x1="26.7%" y1="17.9%" x2="107%" y2="107.9%" id="t"><stop stop-color="#8892BD" offset="0%"/><stop stop-color="#555A6F" offset="100%"/></linearGradient><linearGradient x1="35%" y1="17.9%" x2="86.8%" y2="107.9%" id="u"><stop stop-color="#8892BD" offset="0%"/><stop stop-color="#555A6F" offset="100%"/></linearGradient><linearGradient x1="22.7%" y1="30.6%" x2="116.9%" y2="84.9%" id="v"><stop stop-color="#8892BD" offset="0%"/><stop stop-color="#555A6F" offset="100%"/></linearGradient><path id="w" d="M.9 104.6L2.3 144H30l37-21-.6-15.6 3.5-2.8h26.3L140 83.4l-1.6-21L150 61h19.3l31-15-2-45.4z"/><radialGradient cx="-1.5%" cy="57.1%" fx="-1.5%" fy="57.1%" r="230.5%" gradientTransform="matrix(.3889 .08033 -.03134 .99677 0 0)" id="y"><stop stop-color="#7787C2" offset="0%"/><stop stop-color="#7787C3" stop-opacity=".1" offset="100%"/></radialGradient><linearGradient x1="50%" y1="0%" x2="50%" y2="100%" id="z"><stop stop-color="#F1F6FF" offset="0%"/><stop stop-color="#F7FAFF" offset="100%"/></linearGradient><linearGradient x1="104.4%" y1="50%" x2="-10%" y2="50%" id="A"><stop stop-color="#CBD3E0" offset="0%"/><stop stop-color="#90A1BD" offset="23.5%"/><stop stop-color="#DCE0E8" offset="46.6%"/><stop stop-color="#CAD1DC" offset="69.2%"/><stop stop-color="#EBEEF2" offset="100%"/></linearGradient><linearGradient x1="50%" y1="0%" x2="50%" y2="100%" id="B"><stop stop-color="#F1F6FF" offset="0%"/><stop stop-color="#F7FAFF" offset="100%"/></linearGradient><linearGradient x1="50%" y1="3.1%" x2="50%" y2="100%" id="C"><stop stop-color="#F1F6FF" offset="0%"/><stop stop-color="#F7FAFF" offset="100%"/></linearGradient><linearGradient x1="104.4%" y1="50%" x2="-10%" y2="50%" id="D"><stop stop-color="#CBD3E0" offset="0%"/><stop stop-color="#90A1BD" offset="23.5%"/><stop stop-color="#DCE0E8" offset="46.6%"/><stop stop-color="#CAD1DC" offset="69.2%"/><stop stop-color="#EBEEF2" offset="100%"/></linearGradient><linearGradient x1="7.9%" y1="17%" x2="84.7%" y2="83%" id="E"><stop stop-color="#8892BD" offset="0%"/><stop stop-color="#555A6F" offset="100%"/></linearGradient><linearGradient x1="7.9%" y1="31.3%" x2="84.7%" y2="68.7%" id="F"><stop stop-color="#8892BD" offset="0%"/><stop stop-color="#555A6F" offset="100%"/></linearGradient><path id="G" d="M47.3 4.1L54.9 20 34.8 31.6 7.3 27.3 0 11.3 20 0z"/><linearGradient x1="7.9%" y1="34.8%" x2="84.7%" y2="65.2%" id="I"><stop stop-color="#8892BD" offset="0%"/><stop stop-color="#555A6F" offset="100%"/></linearGradient></defs><g fill="none" fill-rule="evenodd"><path stroke="#CBCFDE" fill-opacity=".6" fill="#FFF" d="M224 164L480.3 12l246.5 155-256.3 152z"/><path fill="url(#a)" opacity=".4" d="M.6 110.2L37.3 131l20.4 1 111-65.9-.7-15.5L130.7 28h-18.8L.6 96.2z" transform="translate(331 51)"/><path fill="url(#b)" opacity=".1" d="M58.9 132.2l36.3-2.2L182 78 193 49.8 131.9 28l37.3 23.6v14z" transform="translate(331 51)"/><g stroke="#D7E0FF" stroke-dasharray="4" stroke-linecap="round" stroke-linejoin="round" stroke-width=".5"><path d="M332.3 122l110.9-66h18.5l38 22.2M336.1 126.3l-3.2 7M496 83.3V73M336 115.8l.1 10.5"/><path d="M461.7 52l-.2 27.1 37.9 23M332.5 146.6l111.1-67.7V52M443 78.7h18.5"/></g><g stroke="#D7E0FF" stroke-dasharray="4" stroke-linecap="round" stroke-linejoin="round" stroke-width=".5"><path d="M499.4 90.4l-109.7 64.1M389.6 181.9l.1-27.4h-20.5V182M369.2 154.6l-36.3-21.2M336.1 126.3l34.4 20h17.9L495 83M369.2 154.6l1.3-8.2M388.4 146.4l1.3 8.1M496 83.3l3.3 7"/></g><path stroke="#999FB6" stroke-width="1.2" d="M336 115.8l-3.2 5.6v39.2l36.2 21.5h20.7L499.1 117V78.2l-3.6-6-33.8-19.8h-18.3z"/><g transform="translate(419 78)"><path fill="url(#c)" opacity=".2" d="M23 47.6l53.8.7L51.5 28z"/><ellipse fill="url(#d)" cx="27" cy="16.2" rx="27" ry="15.2"/><path d="M54 14v20c-.9 8.1-12.6 14.6-27 14.6S.9 42 0 34V14v1c0 8.5 12 15.4 27 15.4s27-7 27-15.5V14z" fill="url(#e)"/><path d="M1 26c0 8.2 11.8 14.8 26.3 14.8S53.6 34.2 53.6 26" stroke="#7D849E" stroke-width=".7" opacity=".4"/><path d="M54 15.2v19.6C53 42.8 41.4 49 27 49S.9 42.7 0 34.8V15.2C1 7.2 12.6 1 27 1s26.1 6.3 27 14.2z" stroke="#555A6F" stroke-width="1.5"/><g fill="#A5ADC1"><path d="M4.3 26.4l2 1.7v4l-2-1.8z"/><path opacity=".5" d="M8.5 29.2l2.2 1.7v4l-2.2-1.7z"/></g><path d="M24.5 14.7l-.6 1.3-15-2.6-4.3-9 2.2-.3 4 8.2 13.7 2.4zm-13-11.8l3.3 7 11.7 2-3.3-7-11.8-2zm13.5.9l4.9 10-17-2.8L8.2.9l17 2.9zM20.4 17l-.6 1.3-15-2.5-4.2-9 2.2-.3 4 8.2L20.3 17z" fill-rule="nonzero" transform="translate(12 6)" fill="url(#f)"/></g><path d="M452.7 131.1l-3.3-3.1-3.2 3.1h-11.5a2.7 2.7 0 0 0-2.7 2.8v10.8c0 1.6 1.2 2.8 2.7 2.8h45c1.5 0 2.7-1.2 2.7-2.8V134c0-1.5-1.2-2.8-2.7-2.8h-27z" stroke="#555A6F" fill="#F0F1F7"/><path d="M445.6 135c.9 0 1.6.2 2.2.7a3 3 0 0 1 1 1.9h-1.1a2 2 0 0 0-.8-1.2c-.3-.2-.8-.4-1.4-.4-.8 0-1.4.3-1.9 1-.4.4-.6 1.2-.6 2 0 1 .2 1.8.6 2.3.4.5 1 .8 2 .8.5 0 1-.1 1.4-.4.4-.3.7-.8.8-1.4h1.2c-.2.9-.6 1.6-1.3 2.1-.6.5-1.3.8-2.1.8-1.3 0-2.3-.5-3-1.3-.5-.7-.8-1.6-.8-2.8 0-1.2.3-2.1.9-2.9.7-.8 1.6-1.2 2.9-1.2zm4.6.1h1.2v7.9h-1.2v-7.9zm6.2-1.1h1l-3.9 10.1h-1l3.9-10.1zm5.5 1c.9 0 1.6.2 2.2.7a3 3 0 0 1 1 1.9h-1a2 2 0 0 0-.8-1.2c-.4-.2-.9-.4-1.4-.4-.9 0-1.5.3-2 1-.4.4-.6 1.2-.6 2 0 1 .2 1.8.6 2.3.4.5 1 .8 2 .8.5 0 1-.1 1.4-.4.4-.3.7-.8.8-1.4h1.2c-.2.9-.6 1.6-1.2 2.1s-1.4.8-2.2.8c-1.3 0-2.3-.5-3-1.3-.5-.7-.8-1.6-.8-2.8 0-1.2.3-2.1 1-2.9.6-.8 1.5-1.2 2.8-1.2zm4.6.1h2.9c1.2 0 2.2.4 2.8 1.1.7.7 1 1.6 1 2.9a4 4 0 0 1-1 2.8c-.6.7-1.6 1.1-2.9 1.1h-2.8v-7.9zm1.2 1v5.9h1.4c1 0 1.7-.3 2.2-.7.5-.5.7-1.2.7-2.2 0-1-.2-1.8-.7-2.2-.4-.5-1.2-.7-2.2-.7h-1.4z" fill="#000"/><g><path fill="url(#g)" opacity=".2" d="M25 45.6l53.8.7L53.5 26z" transform="translate(361 116)"/><path fill="#F7FAFF" fill-rule="nonzero" d="M369.3 144.6V158l-7.3-15.8v-13.4z"/><g transform="translate(362 117)"><path d="M47.3 4.1L54.9 20 34.8 31.6 7.3 27.3 0 11.3 20 0z" fill="url(#h)" fill-rule="nonzero"/><mask id="k" fill="#fff"><use xlink:href="#i"/></mask><use fill="url(#h)" xlink:href="#i"/><path d="M26.6 23.8c.7 0 1.3-.1 1.8-.4.4-.3.7-.7.7-1v-4.6c0-.2.2-.4.6-.5 1-.3 2-.6 2.8-1.1 1.6-1 2.5-2.2 2.5-3.5 0-1.3-1-2.5-2.5-3.4L31 8.6v3.3c0 .8-1 1.4-2.4 1.4h-4.4c-.6 0-1.2-.1-1.7-.4-.4-.2-.7-.6-.7-1V8.6l-1.4.7c-1.6.9-2.4 2.1-2.4 3.4 0 1.3.9 2.6 2.5 3.5.8.5 1.7.8 2.8 1l.3.2c.2.1.3.3.3.4v4.6c0 .4.3.7.8 1 .5.3 1 .4 1.8.4zm4.6-1.4c0 .7-.5 1.3-1.4 1.8-.8.5-2 .8-3.2.8-1.3 0-2.4-.3-3.2-.8-.9-.4-1.4-1.1-1.4-1.8v-4.2c-1-.3-2-.7-2.9-1.2-2-1.1-3-2.6-3-4.3 0-1.6 1-3.1 3-4.3 1-.6 2.1-1 3.4-1.3a1.7 1.7 0 0 1 1.2.1c.2.1.3.3.3.4v4.5H29l.1-.2V7.6c0-.2.2-.4.5-.5h1c1.2.3 2.4.7 3.4 1.3 2 1.2 3.1 2.7 3.1 4.3 0 1.7-1 3.2-3 4.3-.9.5-1.8 1-2.9 1.2v4.2z" fill="url(#j)" fill-rule="nonzero" mask="url(#k)"/></g><path fill="#C2CBD9" d="M416.7 137v13.2l-20 11.5v-13.3z"/><g fill="#858FA8"><path d="M414.9 146v1.9l-1.9.9V147zM411.2 147.9v1.8l-1.8 1v-1.9z"/><path opacity=".5" d="M408.5 149.7v1.8l-1.8 1v-1.9z"/></g><path fill="url(#l)" d="M35.8 32.5v13.2L8.3 41.5V28.2z" transform="translate(361 116)"/><g fill="#858FA8"><path d="M393.5 156.4v2.7l-1.9-.3v-2.7zM390.5 156.2v2.4l-1.8-.3v-2.4z"/><path opacity=".5" d="M387.6 155.4v2.5l-1.8-.3v-2.4z"/></g><path stroke="#A6AEC1" stroke-width=".7" d="M416.7 137.2l-20 11.6-27.3-4.2-7.5-16.2"/><path stroke="#7D849E" stroke-width=".7" opacity=".4" d="M416.7 143.6l-20 11.6-27.3-4.3-7.7-16.4M397.1 148.8v13M369 157.6l.3-13"/><path stroke="#555A6F" stroke-width="1.5" d="M361.5 141.8v-13.6l20.3-11.7 27.8 4.2 7.5 16v13.7l-20.3 11.8-27.8-4.3-7.5-16z"/><g><path d="M390.7 169.1l-3.3-3.1-3.2 3.1h-60.5a2.7 2.7 0 0 0-2.7 2.8v10.8c0 1.6 1.2 2.8 2.7 2.8h103c1.5 0 2.7-1.2 2.7-2.8V172c0-1.5-1.2-2.8-2.7-2.8h-36z" stroke="#555A6F" fill="#F0F1F7"/><path d="M331 173.1h6.5v1h-2.6v6.9h-1.2v-6.8H331v-1zm7.3-.1h1.2v3.1c.2-.3.5-.6.8-.7a2 2 0 0 1 1-.2c.6 0 1.2.2 1.5.6.3.3.5 1 .5 1.7v3.5h-1.2v-3.3c0-.5 0-1-.3-1.2-.2-.3-.5-.4-1-.4-.4 0-.7.2-1 .5-.2.3-.3.7-.3 1.2v3.2h-1.2v-8zm7.2 0c.2 0 .4.1.5.3.2.1.3.3.3.5l-.3.6-.5.2c-.3 0-.5 0-.6-.2a.8.8 0 0 1-.2-.6c0-.2 0-.4.2-.5.1-.2.3-.3.6-.3zm-.6 2.3h1.1v5.7H345v-5.7zm5.3-.1l.8.1v1.2l-.8-.2c-.4 0-.7.2-1 .5-.3.3-.4.7-.4 1.2v3h-1.2v-5.7h1.2v.9c.1-.3.3-.6.5-.7.3-.2.6-.3 1-.3zm5.6-2.2h1.2v8h-1.1v-.7a2 2 0 0 1-1.8.9c-.8 0-1.5-.3-2-1-.4-.5-.6-1.2-.6-2 0-1 .2-1.6.6-2.1.5-.6 1.1-1 2-1 .6 0 1.2.4 1.7 1V173zm-1.5 3.1c-.6 0-1 .2-1.3.6-.2.3-.3.8-.3 1.4 0 .7 0 1.1.3 1.5.3.4.7.6 1.3.6.5 0 .9-.2 1.2-.6.2-.4.3-.8.3-1.4 0-.7-.1-1.2-.4-1.6-.3-.3-.7-.5-1-.5zm3.9 1.6h5.5v1h-5.5v-1zm9.6-2.5c.8 0 1.5.3 2 .9.4.5.6 1.2.6 2 0 1-.2 1.6-.6 2.2-.5.6-1.1.9-2 .9-.7 0-1.2-.4-1.7-1v3h-1.2v-7.9h1.1v.7c.4-.6 1-.8 1.8-.8zm-.2 1c-.5 0-.9.1-1.2.5-.2.4-.3.8-.3 1.4v.1c0 .6.1 1.1.4 1.5.3.3.6.5 1 .5.6 0 1-.2 1.3-.6.3-.3.4-.8.4-1.4 0-.6-.1-1.1-.3-1.5-.3-.4-.7-.6-1.3-.6zm6.5-1c.8 0 1.4.2 1.8.6.4.3.5.9.5 1.6v3.6h-1v-.8l-.9.7a3 3 0 0 1-1.3.3 2 2 0 0 1-1.4-.5c-.3-.3-.5-.7-.5-1.2 0-.6.2-1 .8-1.4.4-.4 1-.5 2-.5h1.2v-.3c0-.8-.4-1.2-1.3-1.2-.4 0-.7 0-.9.2a1 1 0 0 0-.5.7h-1.1c0-.7.4-1.2.9-1.5.4-.2 1-.3 1.7-.3zm1.2 3.2H374c-1 0-1.6.4-1.6 1.1 0 .2 0 .4.3.5.1.2.4.3.7.3.5 0 .9-.2 1.2-.5.4-.3.6-.7.6-1.1v-.3zm5.1-3.2l.7.1v1.2l-.8-.2c-.3 0-.6.2-1 .5-.2.3-.4.7-.4 1.2v3h-1.1v-5.7h1.1v.9l.6-.7c.3-.2.6-.3 1-.3zm3.2-1.7v1.8h1.3v1h-1.3V179.9l.4.1h.7v1h-.9c-.5 0-.8-.1-1-.4-.3-.2-.4-.6-.4-1v-3.3h-1v-1h1V174l1.2-.5zm1.6 1.8h1.3l1.5 4.2 1.5-4.2h1.3l-3 7.9h-1.3l1-2.3-2.3-5.6zm11.7-1.8v1.8h1.3v1H397v3.3l.1.3.3.1h.8v1h-1c-.4 0-.8-.1-1-.4-.2-.2-.3-.6-.3-1v-3.3h-1.1v-1h1V174l1.2-.5zm4.9 1.7c.8 0 1.5.2 2 .8.5.6.8 1.3.8 2.2a3 3 0 0 1-.7 2c-.6.7-1.3 1-2.1 1-.9 0-1.6-.3-2.1-1a3 3 0 0 1-.8-2c0-1 .3-1.6.8-2.2.5-.6 1.2-.8 2-.8zm0 1c-.6 0-1 .1-1.3.6-.2.3-.4.8-.4 1.4 0 .5.2 1 .4 1.4.3.4.7.6 1.3.6.5 0 1-.2 1.2-.6.3-.4.4-.9.4-1.4 0-.6-.1-1-.4-1.4-.3-.5-.7-.7-1.2-.7zm6.5-1c.9 0 1.6.2 2.1.8.5.6.8 1.3.8 2.2a3 3 0 0 1-.8 2c-.5.7-1.2 1-2 1-1 0-1.6-.3-2.1-1a3 3 0 0 1-.8-2c0-1 .3-1.6.8-2.2.5-.6 1.2-.8 2-.8zm0 1c-.5 0-1 .1-1.2.6-.3.3-.4.8-.4 1.4 0 .5.1 1 .4 1.4.3.4.7.6 1.2.6.6 0 1-.2 1.3-.6.3-.4.4-.9.4-1.4 0-.6-.1-1-.4-1.4-.3-.5-.7-.7-1.3-.7zm4.1-3.2h1.2v8h-1.2v-8zm4.8 2.2c1.4 0 2.3.6 2.4 1.8h-1.2c0-.4-.2-.6-.4-.7l-.9-.2c-.3 0-.6 0-.8.2-.2 0-.3.3-.3.5s.2.3.5.5l1.1.3 1.5.6c.4.2.7.6.7 1.1 0 1.2-.9 1.9-2.6 1.9-1.5 0-2.4-.7-2.5-2h1.2c0 .3.2.6.4.8l1 .2c.8 0 1.3-.3 1.3-.8 0-.2-.2-.5-.5-.6l-1.2-.4-1.4-.4c-.4-.3-.6-.7-.6-1.2s.2-1 .6-1.2c.4-.3 1-.4 1.7-.4z" fill="#000"/></g></g><g transform="translate(359 77)"><mask id="n" fill="#fff"><use xlink:href="#m"/></mask><g mask="url(#n)" stroke="#D7E0FF" stroke-dasharray="4" stroke-linecap="round" stroke-linejoin="round" stroke-width=".5"><path d="M140.4 13.4L30.7 77.5V105"/><path d="M30.6 104.9l.1-27.4H10.2V105M10.1 104.9V77.6L-26 56.4M-22.9 49.3l34.4 20h17.9L136 6M10 78.2l1.3-8.2M29.2 70l1.3 8.2"/></g></g><path fill="#3A51C6" opacity=".6" d="M500.5 144.4L470.2 127l4.6-2.7 30.3 17.4 39.8-22.6 30.9 17.8 3.6-2.1 1 7.5-13-.6 3.7-2-26.3-15.3-65 37.4 28.2 16 3.6-2 1 7.4-13-.6 3.7-2-28.1-16.1-64 36.2 30.5 17.3 3.6-2.1 1 7.5-13-.6 3.7-2-35-20z"/><g><path fill="url(#o)" opacity=".4" d="M.6 158.2L37.3 179l20.4 1L251.8 65.2l-.7-15.5L213.8 27h-18.7L.6 144.2z" transform="translate(411 110)"/><path fill="url(#p)" opacity=".1" d="M58.9 180.2l46.5-5L285.5 71V58L213 27l39.1 23.3v14z" transform="translate(411 110)"/><g stroke="#D7E0FF" stroke-dasharray="4" stroke-linecap="round" stroke-linejoin="round" stroke-width=".5"><path d="M412.3 229L606 114h18.5l38 22.2M416.1 233.3l-3.2 7M659 141v-10.5M416 222.8l.1 10.5"/><path d="M624.6 110l-.2 27.1 37.8 23M412.5 253.6L606.3 137v-27M607 137h18.4"/></g><g stroke="#D7E0FF" stroke-dasharray="4" stroke-linecap="round" stroke-linejoin="round" stroke-width=".5"><path d="M662.2 148.4L469.7 261.5M469.6 288.9l.1-27.4h-20.5V289M449.2 261.6l-36.3-21.2M416.1 233.3l34.4 20h17.9L659 140.7M449.2 261.6l1.3-8.2M468.4 253.4l1.3 8.1M659 141l3.3 7"/></g><path stroke="#999FB6" stroke-width="1.2" d="M416 222.8l-3.2 5.6v39.2l36.2 21.5h20.7L662 175V136l-3.6-5.9-33.8-19.9h-18.3z"/><g><path fill="url(#q)" opacity=".2" d="M21.6 63.3l28 .2v-30L31 42.8v1l10.6 5.4v2.3z" transform="translate(445 203)"/><path d="M453.2 256.3l19-11.1 13 7.4v1.6l-19 11.6-13-7.9v-1.6z" stroke="#555A6F" stroke-width="1.5"/><path fill="#F5F9FF" d="M466.3 264.1v1.7l-13-7.9v-1.6z"/><path fill="#D5E0F3" d="M466.3 264.1l18.9-11.5v1.6l-18.9 11.6z"/><path fill="#F1F6FF" d="M453.2 256.3l19-11.1 13 7.4-18.9 11.5z"/><path stroke-opacity=".6" stroke="#7787C3" stroke-width=".7" d="M456.6 258.2l9.7 5.8v2.2-2.2l19.1-11.6"/><g><path fill="#F7FAFF" d="M464.7 250.9v8.3l-1.7-1v-8.4z"/><path fill="#E3EBF9" d="M464.7 250.9l11.5-6.6v8.3l-11.5 6.6z"/><path stroke="#555A6F" d="M463 253.6v4.6l1.7 1 11.5-6.7V246l-11.5 6.7v6.5"/></g><g><path d="M44.7 2.1a2.1 2.1 0 0 1 .6-.1h.5l.2.1L43 .4H42.8V.2h-.5-.1-.1-.1l-.2.1-.3.2-39 22.7c-.2 0-.3.2-.4.3-.2 0-.3.2-.4.3l-.2.2-.1.1-.1.1v.1a3.4 3.4 0 0 0-.2.2v.1l-.1.1-.2.2v.2H.6v.2l-.1.2-.1.2v.1l-.1.1v.2H.2v.4l-.1.2v28.9c0 .7.3 1.2.7 1.5l2.9 1.7c-.4-.3-.7-.8-.7-1.5V29v-.4-.3-.2a5 5 0 0 1 .2-.5l.1-.3.1-.2V27l.2-.2c0-.2.1-.2.2-.3a6 6 0 0 1 .4-.6l.2-.2.1-.1.3-.3.4-.3 39-22.7a2.7 2.7 0 0 1 .4-.2" fill="url(#r)" transform="translate(445 203)"/><path d="M488.5 205.7c1.3-.7 2.3-.1 2.3 1.3l.1 28c0 1.5-1 3.3-2.3 4L450 261.3c-1.2.7-2.3.1-2.3-1.3v-27.6c0-1.4 1-3.2 2.2-4l38.6-22.7z" stroke-opacity=".6" stroke="#7787C3" stroke-width=".7" fill="#E5EAF3"/><path fill="url(#s)" d="M5.5 27.9l38-22.3-.2 27.1L5.3 55z" transform="translate(445 203)"/><path d="M447.9 261.8l-2-1.6c-.4-.3-.7-.8-.7-1.5v-28.4a4.1 4.1 0 0 1 .1-1v-.3l.2-.2a4.9 4.9 0 0 1 .1-.4l.1-.2.1-.2.2-.2v-.2l.2-.1a2.8 2.8 0 0 1 .3-.4 5.8 5.8 0 0 1 .6-.5l.4-.3 39-22.7a3 3 0 0 1 .8-.3h.7l.1.1 2 1.7c.4.2.7.7.7 1.5l.1 28.3c0 1.5-1 3.3-2.3 4l-39 22.8c-.7.4-1.3.4-1.7 0z" stroke="#555A6F" stroke-width="1.5"/></g><g transform="translate(463 226)" fill="url(#t)" fill-rule="nonzero"><path d="M12 0L5.3 11.3l-3.7-2L0 12l5.2 2.6L13.5 1z"/></g><g><path d="M472.7 271.1l-3.3-3.1-3.2 3.1h-24.5a2.7 2.7 0 0 0-2.7 2.8v10.8c0 1.6 1.2 2.8 2.7 2.8h53c1.5 0 2.7-1.2 2.7-2.8V274c0-1.5-1.2-2.8-2.7-2.8h-22z" stroke="#555A6F" fill="#F0F1F7"/><path d="M449.4 275.1h6.4v1h-2.6v6.9H452v-6.8h-2.6v-1zm9.7 2c.9 0 1.6.4 2 1 .5.6.8 1.4.8 2.4h-4.3c0 .5.1 1 .4 1.3.3.2.6.4 1.1.4.4 0 .7-.1 1-.3.2-.1.3-.4.5-.7h1.2c-.2.5-.4 1-.8 1.3-.5.4-1.1.7-1.9.7-.8 0-1.5-.3-2-.8a3 3 0 0 1-.8-2.2c0-.9.3-1.6.8-2.2.5-.6 1.1-.8 2-.8zm0 1c-.4 0-.8.1-1 .4a2 2 0 0 0-.5 1.1h3c0-1-.6-1.5-1.5-1.5zm5.9-1c1.5 0 2.3.7 2.4 1.9h-1.1c-.1-.4-.3-.6-.4-.7l-1-.2c-.3 0-.6 0-.7.2-.2 0-.3.3-.3.5s.1.3.4.5l1.2.3 1.4.6c.5.2.7.6.7 1.2 0 1.1-.9 1.8-2.5 1.8s-2.4-.7-2.6-2h1.2c0 .3.2.6.4.8l1 .2c.8 0 1.3-.3 1.3-.8 0-.2-.2-.5-.5-.6l-1.2-.4-1.4-.4c-.4-.3-.6-.7-.6-1.2s.2-1 .6-1.2c.4-.3 1-.4 1.7-.4zm5.3-1.6v1.8h1.3v1h-1.3v3.3l.1.3.3.1h.8v1h-1c-.5 0-.8-.1-1-.4-.3-.2-.4-.6-.4-1v-3.3h-1v-1h1V276l1.2-.5zm3-.5c.3 0 .5.1.6.3.2.1.3.3.3.5l-.3.6-.5.2c-.3 0-.5 0-.6-.2a.8.8 0 0 1-.2-.6c0-.2 0-.4.2-.5.1-.2.3-.3.6-.3zm-.5 2.3h1.1v5.7h-1.1v-5.7zm5.6-.1c1.4 0 2.1.7 2.1 2.3v3.5h-1.1v-3.4c0-1-.5-1.5-1.4-1.5-.3 0-.6.1-.8.4-.3.3-.5.6-.5 1v3.5h-1.2v-5.7h1.2v.7l.7-.6a2 2 0 0 1 1-.2zm5.8 0a2 2 0 0 1 1.8.9v-.8h1.1v5.3c0 1.8-.9 2.7-2.6 2.7-.8 0-1.4-.1-1.8-.4a2 2 0 0 1-.8-1.4h1.1c.1.3.2.6.5.7l1 .2c1 0 1.5-.5 1.5-1.6v-.9c-.5.6-1 1-1.8 1s-1.4-.3-1.9-.8c-.4-.5-.7-1.2-.7-2 0-1 .3-1.6.7-2.1.5-.6 1.1-.8 2-.8zm.2 1c-.5 0-.9 0-1.1.4-.3.4-.5.8-.5 1.4 0 .6.1 1 .4 1.3.2.4.6.6 1.2.6.5 0 .9-.2 1.2-.5.2-.3.4-.8.4-1.4 0-.6-.2-1-.4-1.4-.3-.3-.7-.5-1.2-.5z" fill="#000"/></g></g><g><path fill="url(#q)" opacity=".2" d="M21.6 63.3l28 .2v-30L31 42.8v1l10.6 5.4v2.3z" transform="translate(516 161)"/><path d="M524.2 214.3l19-11.1 13 7.4v1.6l-19 11.6-13-7.9v-1.6z" stroke="#555A6F" stroke-width="1.5"/><path fill="#F5F9FF" d="M537.3 222.1v1.7l-13-7.9v-1.6z"/><path fill="#D5E0F3" d="M537.3 222.1l18.9-11.5v1.6l-18.9 11.6z"/><path fill="#F1F6FF" d="M524.2 214.3l19-11.1 13 7.4-18.9 11.5z"/><path stroke-opacity=".6" stroke="#7787C3" stroke-width=".7" d="M527.6 216.2l9.7 5.8v2.2-2.2l19.1-11.6"/><g><path fill="#F7FAFF" d="M535.7 208.9v8.3l-1.7-1v-8.4z"/><path fill="#E3EBF9" d="M535.7 208.9l11.5-6.6v8.3l-11.5 6.6z"/><path stroke="#555A6F" d="M534 211.6v4.6l1.7 1 11.5-6.7V204l-11.5 6.7v6.5"/></g><g><path d="M44.7 2.1a2.1 2.1 0 0 1 .6-.1h.5l.2.1L43 .4H42.8V.2h-.5-.1-.1-.1l-.2.1-.3.2-39 22.7c-.2 0-.3.2-.4.3-.2 0-.3.2-.4.3l-.2.2-.1.1-.1.1v.1a3.4 3.4 0 0 0-.2.2v.1l-.1.1-.2.2v.2H.6v.2l-.1.2-.1.2v.1l-.1.1v.2H.2v.4l-.1.2v28.9c0 .7.3 1.2.7 1.5l2.9 1.7c-.4-.3-.7-.8-.7-1.5V29v-.4-.3-.2a5 5 0 0 1 .2-.5l.1-.3.1-.2V27l.2-.2c0-.2.1-.2.2-.3a6 6 0 0 1 .4-.6l.2-.2.1-.1.3-.3.4-.3 39-22.7a2.7 2.7 0 0 1 .4-.2" fill="url(#r)" transform="translate(516 161)"/><path d="M559.5 163.7c1.3-.7 2.3-.1 2.3 1.3l.1 28c0 1.5-1 3.3-2.3 4L521 219.3c-1.2.7-2.3.1-2.3-1.3v-27.6c0-1.4 1-3.2 2.2-4l38.6-22.7z" stroke-opacity=".6" stroke="#7787C3" stroke-width=".7" fill="#E5EAF3"/><path fill="url(#s)" d="M5.5 27.9l38-22.3-.2 27.1L5.3 55z" transform="translate(516 161)"/><path d="M518.9 219.8l-2-1.6c-.4-.3-.7-.8-.7-1.5v-28.4a4.1 4.1 0 0 1 .1-1v-.3l.2-.2a4.9 4.9 0 0 1 .1-.4l.1-.2.1-.2.2-.2v-.2l.2-.1a2.8 2.8 0 0 1 .3-.4 5.8 5.8 0 0 1 .6-.5l.4-.3 39-22.7a3 3 0 0 1 .8-.3h.7l.1.1 2 1.7c.4.2.7.7.7 1.5l.1 28.3c0 1.5-1 3.3-2.3 4l-39 22.8c-.7.4-1.3.4-1.7 0z" stroke="#555A6F" stroke-width="1.5"/></g><g transform="translate(534 182)" fill="url(#u)" fill-rule="nonzero"><path d="M12.6.6c1.3.9 2 2.6 2.1 5 0 2-.4 3.9-1.2 5.8l-.6 1.3-2.6-3.6c-.2-.3 0-.8.2-1.2.1-.2.3-.3.4-.3.2-.2.4-.2.5 0L13 9.7c.3-1 .5-2.2.5-3.2 0-2-.7-3.5-1.8-4.2-1-.7-2.5-.7-4.2.3C6 3.4 5 4.6 4 6l-.4.4h-.5C3 6 3 5.5 3.3 5.1 4.4 3.5 5.8 2 7.3 1h.1c2-1.3 3.9-1.3 5.2-.5zM11 13.5h.6c.2.2.1.8-.2 1.2-1.1 1.6-2.5 3-4 3.8-2 1.3-3.8 1.3-5.1.5C1 18 .2 16.4.2 14c0-2 .5-3.9 1.3-5.8L2 6.8l2.5 3.6c.2.2.1.8-.2 1.2l-.3.3h-.6L2 9.8c-.3 1-.5 2.2-.5 3.3 0 2 .7 3.5 1.8 4.2 1 .7 2.6.6 4.2-.4 1.3-.7 2.4-1.8 3.3-3.2l.3-.3z"/></g><g><path d="M543.7 229.1l-3.3-3.1-3.2 3.1h-26.5a2.7 2.7 0 0 0-2.7 2.8v10.8c0 1.6 1.2 2.8 2.7 2.8h78c1.5 0 2.7-1.2 2.7-2.8V232c0-1.5-1.2-2.8-2.7-2.8h-45z" stroke="#555A6F" fill="#F0F1F7"/><path d="M518.2 232.1h3.3c1.8 0 2.8.8 2.8 2.4 0 1.6-1 2.4-2.9 2.4h-2v3.1h-1.2v-7.9zm1.2 1v2.8h2c.6 0 1 0 1.3-.3.2-.2.4-.6.4-1 0-.6-.2-.9-.5-1.1-.2-.2-.7-.3-1.2-.3h-2zm8.5 1l.7.2v1.2l-.8-.2c-.3 0-.7.2-1 .5-.2.3-.4.7-.4 1.2v3h-1.1v-5.7h1.1v.9l.6-.7c.2-.2.5-.3.9-.3zm3.9 0c.9 0 1.6.4 2 1 .5.6.8 1.4.8 2.4h-4.3c0 .5.1 1 .4 1.3.3.2.6.4 1.1.4.4 0 .7-.1 1-.3.2-.1.3-.4.5-.7h1.2c-.2.5-.4 1-.8 1.3-.5.4-1.1.7-1.9.7-.8 0-1.5-.3-2-.8a3 3 0 0 1-.8-2.2c0-.9.3-1.6.8-2.2.5-.6 1.1-.8 2-.8zm0 1c-.4 0-.8.1-1 .4a2 2 0 0 0-.5 1.1h3c0-1-.6-1.5-1.5-1.5zm3.6 1.6h5.6v1h-5.6v-1zm10.9-4.7h1.2v8h-1.1v-.7a2 2 0 0 1-1.8.9c-.8 0-1.5-.3-2-1-.4-.5-.6-1.2-.6-2 0-1 .2-1.6.6-2.1.5-.6 1.2-1 2-1 .7 0 1.2.4 1.7 1V232zm-1.5 3.1c-.5 0-1 .2-1.2.6-.3.3-.4.8-.4 1.4 0 .7.1 1.1.3 1.5.3.4.7.6 1.3.6.5 0 .9-.2 1.2-.6.2-.4.3-.8.3-1.4 0-.7-.1-1.2-.4-1.6-.3-.3-.6-.5-1-.5zm6.4-1c1 0 1.6.4 2.1 1s.7 1.4.7 2.4h-4.3c0 .5.2 1 .4 1.3.3.2.7.4 1.1.4.4 0 .8-.1 1-.3.2-.1.4-.4.5-.7h1.2c-.1.5-.4 1-.8 1.3-.5.4-1.1.7-1.9.7-.8 0-1.5-.3-2-.8a3 3 0 0 1-.7-2.2c0-.9.2-1.6.7-2.2.5-.6 1.2-.8 2-.8zm0 1c-.4 0-.7.1-1 .4a2 2 0 0 0-.5 1.1h3c0-1-.5-1.5-1.5-1.5zm4-3.1h1v8h-1v-8zm3.4 0l.6.3.2.5-.3.6-.5.2c-.3 0-.4 0-.6-.2a.8.8 0 0 1-.2-.6c0-.2 0-.4.2-.5.2-.2.3-.3.6-.3zm-.6 2.3h1.2v5.7H558v-5.7zm2.1 0h1.3l1.4 4.2 1.4-4.2h1.3l-2.1 5.7h-1.2l-2-5.7zm8.5-.1c1 0 1.7.3 2.2 1 .4.5.6 1.3.6 2.3h-4.3c0 .5.2 1 .5 1.3a1.6 1.6 0 0 0 2 .2c.3-.2.4-.5.6-.8h1.1c0 .5-.3 1-.7 1.3-.5.4-1.2.7-2 .7s-1.4-.3-2-.8a3 3 0 0 1-.7-2.2c0-.9.2-1.6.7-2.2.5-.6 1.2-.8 2-.8zm0 1c-.4 0-.7 0-1 .3a2 2 0 0 0-.5 1.1h3.1c0-1-.6-1.5-1.5-1.5zm6.5-1l.7.1v1.2l-.8-.2c-.4 0-.7.2-1 .5-.3.3-.4.7-.4 1.2v3h-1.2v-5.7h1.2v.9c.1-.3.3-.6.5-.7.3-.2.6-.3 1-.3zm.8.1h1.3l1.5 4.2 1.5-4.2h1.3l-3 7.9h-1.3l1-2.3-2.3-5.6z" fill="#000"/></g></g><g><path fill="url(#q)" opacity=".2" d="M21.6 63.3l28 .2v-30L31 42.8v1l10.6 5.4v2.3z" transform="translate(587 119)"/><path d="M595.2 172.3l19-11.1 13 7.4v1.6l-19 11.6-13-7.9v-1.6z" stroke="#555A6F" stroke-width="1.5"/><path fill="#F5F9FF" d="M608.3 180.1v1.7l-13-7.9v-1.6z"/><path fill="#D5E0F3" d="M608.3 180.1l18.9-11.5v1.6l-18.9 11.6z"/><path fill="#F1F6FF" d="M595.2 172.3l19-11.1 13 7.4-18.9 11.5z"/><path stroke-opacity=".6" stroke="#7787C3" stroke-width=".7" d="M598.6 174.2l9.7 5.8v2.2-2.2l19.1-11.6"/><g><path fill="#F7FAFF" d="M606.7 166.9v8.3l-1.7-1v-8.4z"/><path fill="#E3EBF9" d="M606.7 166.9l11.5-6.6v8.3l-11.5 6.6z"/><path stroke="#555A6F" d="M605 169.6v4.6l1.7 1 11.5-6.7V162l-11.5 6.7v6.5"/></g><g><path d="M44.7 2.1a2.1 2.1 0 0 1 .6-.1h.5l.2.1L43 .4H42.8V.2h-.5-.1-.1-.1l-.2.1-.3.2-39 22.7c-.2 0-.3.2-.4.3-.2 0-.3.2-.4.3l-.2.2-.1.1-.1.1v.1a3.4 3.4 0 0 0-.2.2v.1l-.1.1-.2.2v.2H.6v.2l-.1.2-.1.2v.1l-.1.1v.2H.2v.4l-.1.2v28.9c0 .7.3 1.2.7 1.5l2.9 1.7c-.4-.3-.7-.8-.7-1.5V29v-.4-.3-.2a5 5 0 0 1 .2-.5l.1-.3.1-.2V27l.2-.2c0-.2.1-.2.2-.3a6 6 0 0 1 .4-.6l.2-.2.1-.1.3-.3.4-.3 39-22.7a2.7 2.7 0 0 1 .4-.2" fill="url(#r)" transform="translate(587 119)"/><path d="M630.5 121.7c1.3-.7 2.3-.1 2.3 1.3l.1 28c0 1.5-1 3.3-2.3 4L592 177.3c-1.2.7-2.3.1-2.3-1.3v-27.6c0-1.4 1-3.2 2.2-4l38.6-22.7z" stroke-opacity=".6" stroke="#7787C3" stroke-width=".7" fill="#E5EAF3"/><path fill="url(#s)" d="M5.5 27.9l38-22.3-.2 27.1L5.3 55z" transform="translate(587 119)"/><path d="M589.9 177.8l-2-1.6c-.4-.3-.7-.8-.7-1.5v-28.4a4.1 4.1 0 0 1 .1-1v-.3l.2-.2a4.9 4.9 0 0 1 .1-.4l.1-.2.1-.2.2-.2v-.2l.2-.1a2.8 2.8 0 0 1 .3-.4 5.8 5.8 0 0 1 .6-.5l.4-.3 39-22.7a3 3 0 0 1 .8-.3h.7l.1.1 2 1.7c.4.2.7.7.7 1.5l.1 28.3c0 1.5-1 3.3-2.3 4l-39 22.8c-.7.4-1.3.4-1.7 0z" stroke="#555A6F" stroke-width="1.5"/></g><g transform="translate(603 142)" fill="url(#v)" fill-rule="nonzero"><path d="M15.7 0l3.7 2-3.7 6.2-1.3-.7 2.3-3.9-2.3-1.3L15.7 0zM.3 12.8l3.6-6.2 1.4.8L3 11.3l2.3 1.3L4 14.8l-3.7-2zM11 .9h1.7L8 13.3H6.3L11 .8z"/></g><g><path d="M614.7 187.1l-3.3-3.1-3.2 3.1h-27.5a2.7 2.7 0 0 0-2.7 2.8v10.8c0 1.6 1.2 2.8 2.7 2.8h71c1.5 0 2.7-1.2 2.7-2.8V190c0-1.5-1.2-2.8-2.7-2.8h-37z" stroke="#555A6F" fill="#F0F1F7"/><path d="M588.9 191.1h3.3c1.8 0 2.8.8 2.8 2.4 0 1.6-1 2.4-2.9 2.4h-2v3.1h-1.2v-7.9zm1.2 1v2.8h2c.6 0 1 0 1.3-.3.2-.2.4-.6.4-1 0-.6-.2-.9-.5-1.1-.2-.2-.7-.3-1.2-.3h-2zm8.5 1l.7.2v1.2l-.8-.2c-.3 0-.7.2-1 .5-.2.3-.4.7-.4 1.2v3H596v-5.7h1.1v.9l.6-.7c.2-.2.6-.3.9-.3zm4 0c1 0 1.6.3 2.1 1 .5.5.8 1.2.8 2a3 3 0 0 1-.7 2.2c-.6.6-1.3.9-2.1.9-.9 0-1.6-.3-2.1-1a3 3 0 0 1-.8-2c0-1 .3-1.6.8-2.2.5-.6 1.2-.8 2-.8zm0 1c-.5 0-.9.2-1.2.7-.2.3-.4.8-.4 1.4 0 .5.2 1 .4 1.4.3.4.7.6 1.3.6.5 0 1-.2 1.2-.6.3-.4.4-.9.4-1.4 0-.6-.1-1-.4-1.4-.3-.5-.7-.7-1.2-.7zm8.1-3.1h1.2v8h-1.1v-.7a2 2 0 0 1-1.8.9c-.8 0-1.5-.3-2-1-.4-.5-.6-1.2-.6-2 0-1 .2-1.6.7-2.1.4-.6 1-1 1.9-1 .7 0 1.3.4 1.7 1V191zm-1.5 3.1c-.5 0-1 .2-1.2.6-.3.3-.4.8-.4 1.4 0 .7.1 1.1.3 1.5.3.4.7.6 1.3.6.5 0 .9-.2 1.2-.6.2-.4.3-.8.3-1.4 0-.7-.1-1.2-.4-1.6-.3-.3-.6-.5-1-.5zm4-.8h1.2v3.5c0 .5 0 .8.3 1 .2.3.5.4 1 .4.3 0 .5-.2.8-.4.3-.3.5-.6.5-1v-3.5h1.2v5.7H617v-.8c-.4.6-1 1-1.7 1-1.4 0-2.1-.8-2.1-2.3v-3.6zm8.9-.1c.7 0 1.3.1 1.7.5.5.3.8.8.9 1.5h-1.2c0-.3-.2-.6-.5-.8-.2-.2-.5-.3-1-.3-.4 0-.8.2-1 .6-.3.3-.5.8-.5 1.5 0 .6.2 1 .4 1.5.3.3.7.5 1.2.5.8 0 1.3-.4 1.4-1.3h1.2c-.1.8-.4 1.3-.9 1.7-.4.4-1 .6-1.7.6-1 0-1.6-.3-2-.9-.5-.6-.8-1.3-.8-2.1 0-.9.3-1.6.7-2.1.5-.6 1.2-1 2-1zm5.3-1.7v1.8h1.3v1h-1.3v3.3l.1.3.3.1h.8v1h-1c-.5 0-.8-.1-1-.4-.3-.2-.4-.6-.4-1v-3.3h-1v-1h1V192l1.2-.5zm3-.5c.3 0 .5.1.7.3l.2.5-.3.6-.5.2c-.3 0-.4 0-.6-.2a.8.8 0 0 1-.2-.6c0-.2 0-.4.2-.5.2-.2.3-.3.6-.3zm-.5 2.3h1.2v5.7h-1.2v-5.7zm5.3-.1c.9 0 1.6.2 2.1.8.5.6.8 1.3.8 2.2a3 3 0 0 1-.8 2c-.5.7-1.2 1-2 1-1 0-1.6-.3-2.1-1a3 3 0 0 1-.8-2c0-1 .3-1.6.8-2.2.5-.6 1.2-.8 2-.8zm0 1c-.5 0-1 .1-1.2.6-.3.3-.4.8-.4 1.4 0 .5.1 1 .4 1.4.3.4.7.6 1.2.6.6 0 1-.2 1.3-.6.3-.4.4-.9.4-1.4 0-.6-.1-1-.4-1.4-.3-.5-.7-.7-1.3-.7zm6.9-1c1.4 0 2.1.7 2.1 2.3v3.5H643v-3.4c0-1-.4-1.5-1.3-1.5-.3 0-.6.1-.9.4-.2.3-.4.6-.4 1v3.5h-1.2v-5.7h1.2v.7c.2-.3.4-.5.7-.6a2 2 0 0 1 1-.2z" fill="#000"/></g></g><g transform="translate(438 123)"><mask id="x" fill="#fff"><use xlink:href="#w"/></mask><g mask="url(#x)" stroke="#D7E0FF" stroke-dasharray="4" stroke-linecap="round" stroke-linejoin="round" stroke-width=".5"><path d="M224.2 25.4L31.7 138.5M31.6 165.9l.1-27.4H11.2V166M11.2 138.6l-36.3-21.2M-21.9 110.3l34.4 20h17.9L221 17.7M11.2 138.6l1.3-8.2M30.4 130.4l1.3 8.1M221 18l3.3 7"/></g></g></g><g fill="#3A51C6" fill-rule="nonzero" opacity=".6"><path d="M531.3 16.5l-1.7 1-6.5-3.8-3.2 1.9L526 19l-1.6 1-6-3.6-3.6 2 6.8 4-1.6 1-8.7-5.1 11.6-6.7 8.4 4.8zm-25.7-15c1.3.7 2.1 1.6 2.3 2.5.1.9-.3 1.7-1.3 2.5l-1.8-1c.5-.6.7-1.1.5-1.7-.1-.5-.6-1-1.4-1.4-1.3-.7-2.6-1-4-.9-1.4.1-2.7.6-4 1.3-1.4.8-2.1 1.6-2.3 2.3-.2.8.3 1.6 1.6 2.4.9.4 1.7.7 2.7.8 1 0 2-.1 3.1-.5l1.9 1c-1.7.7-3.3 1-5 .9-1.6-.1-3-.5-4.3-1.3-2-1-2.8-2.3-2.6-3.5.2-1.1 1.2-2.2 3-3.2 1.7-1 3.5-1.5 5.5-1.7 2.2-.1 4.2.4 6 1.4zm11.2 6.4c1.4.8 2.2 1.7 2.4 2.6.1 1-.3 1.7-1.3 2.5l-1.8-1c.5-.6.7-1.1.5-1.6-.1-.6-.6-1-1.5-1.5-1.2-.7-2.5-1-4-.9-1.3.1-2.6.6-4 1.3-1.3.8-2 1.6-2.2 2.4-.2.8.3 1.5 1.6 2.3.8.4 1.7.7 2.6.8 1 0 2.1 0 3.2-.5l1.9 1.1c-1.7.6-3.3 1-5 .8-1.7-.1-3-.5-4.3-1.3-2-1-2.8-2.3-2.6-3.5.2-1 1.2-2.1 3-3.2 1.7-1 3.5-1.5 5.5-1.7 2.2-.1 4.2.4 6 1.4z"/></g><path d="M137.3 105.1l3.2-1.9 1 8-13.7-.7 4.6-2.6-67.4-39 4.7-2.9 67.6 39.1z" fill="#3A51C6" opacity=".6"/><g><path d="M6 56.8l46.6-3-8.5-13.2c-3.7-2.5-8-2.6-13-.5S17.8 47.8 6 56.8z" fill="url(#y)" opacity=".2" transform="translate(28 12)"/><path d="M55.2 55.3v1l-16 9.1-.1-17.7v17.7l-.8-.5v1l-4.4 2.5-4.3-2.5V45.5v-.9-.2l.1-.4V44v-.1l.1-.3.1-.2v-.1l.1-.2v-.2l.1-.2v-.2h.1l.2-.5v-.1l.2-.3v-.2l.1-.1.1-.2.2-.3.3-.5.2-.2.1-.2.1-.2.1-.1.1-.2.2-.1c0-.1 0-.2.2-.3l.1-.2c.2 0 .3-.2.4-.3v-.1l.2-.1a9.6 9.6 0 0 1 .4-.4l.2-.2.3-.2.2-.1.4-.3 6.6-3.7-3.4-2c-1.3-.7-2-2.3-2-4.5V26v-.3-.3-.2l.1-.5v-.3l.1-.1v-.4l.2-.3v-.2l.1-.3V23l.2-.3v-.3h.1l.3-.7v-.1l.3-.5v-.2l.2-.2v-.2c.2-.2.3-.3.3-.5h.1v-.1l.4-.6V19l.2-.2.2-.3.1-.2.2-.3.2-.2.2-.2.2-.3.2-.2.1-.1.5-.5.1-.2.2-.1a16.4 16.4 0 0 1 .6-.6l.3-.2.4-.3.3-.2a10 10 0 0 1 1.5-.8l.1-.1h.2l.5-.3H44.7l.3-.1h2.1l.1.1h.2a3.3 3.3 0 0 1 .4.3l4.3 2.5c1.3.6 2.1 2.2 2.1 4.5a13.5 13.5 0 0 1-1.4 5.9H54.2v.1h.1a2.3 2.3 0 0 1 .3.2l4.3 2.4c.9.5 1.4 1.6 1.4 3.2l.1 20.4-4.3 2.5V38v17.7zM38.7 39.5h.1L55.4 30l-16.6 9.4zM47 17.1z" stroke="#555A6F" stroke-width="3"/><path fill="#D5E0F3" d="M56 55.8l-4.2-2.5V35.6L56 38zM39.2 65.4L34.8 63V45.2l4.3 2.5z"/><path d="M28.5 16.7a4.8 4.8 0 0 1 1-.3h1l.3.1.4.2-4.3-2.4-.3-.2h-.1-.1l-.2-.1h-.4-.1-.2-.1-.2-.1H24.8h-.2l-.4.2H24 24a6 6 0 0 0-.6.4L6.9 24a7 7 0 0 0-.5.3l-.2.1-.3.2-.1.2a9.5 9.5 0 0 0-.5.4l-.2.2-.3.3-.1.1-.1.1-.2.3-.1.1-.1.2-.2.1v.2l-.2.2-.1.1v.1c-.2.1-.2.3-.3.4v.1L3 28v.2l-.1.1v.2l-.2.3-.3.5V29.6l-.1.2v.2l-.1.2-.1.3v.3H2v.2l-.1.4v.2l-.1.9v20.4l4.4 2.5V35 34 34v-.4l.1-.3V33a9.7 9.7 0 0 1 .4-1V32l.3-.6a11.6 11.6 0 0 1 .5-1.1l.4-.6v-.1a11 11 0 0 1 .9-1c0-.2.1-.2.2-.3a10.7 10.7 0 0 1 1.5-1.3l.1-.1.5-.3L27.7 17l.6-.3.2-.1" fill="url(#z)" transform="translate(27.7 13)"/><path d="M21.9 17c2.7-1.5 5-.2 5 2.9v20.4l-4.3 2.5V25l-1 .5.1 17.7-16 9.1V34.7l-1 .5V53L.5 55.4V35c0-3.1 2.2-7 5-8.5L21.9 17z" fill="url(#A)" transform="translate(33.5 13)"/><path d="M13 15.2a11.2 11.2 0 0 1 .2-1v-.4l.1-.4.2-.5v-.3l.3-.6v-.2l.4-.8a16.3 16.3 0 0 1 .8-1.6v-.1l.5-.7.1-.2a17.4 17.4 0 0 1 1.2-1.6l.3-.3.5-.5.3-.3a16.5 16.5 0 0 1 .6-.5l.2-.2.5-.4.2-.1a10.5 10.5 0 0 1 1.4-.8h.1l.4-.2a7.1 7.1 0 0 1 1.5-.4H24.2l.4.2h.1c.2 0 .3.2.5.3L20.9 1l-.4-.2h-.2L20 .7l-.2-.1h-.1-.1a4 4 0 0 0-.4 0H19h-.3-.1H18a6 6 0 0 0-.3 0h-.2l-.1.1a7 7 0 0 0-.5.2h-.2l-.2.2a7 7 0 0 0-.8.4L15 2l-.2.2c-.2 0-.3.2-.5.3l-.2.2a14.5 14.5 0 0 0-.7.6l-.1.1-.2.2-.4.5-.2.1-.1.2-.3.3-.2.2-.1.2-.2.3-.1.2-.3.3-.1.2a17.7 17.7 0 0 0-.5.7V7l-.3.5v.2l-.2.2V8c-.2.1-.2.3-.3.5l-.3.7v.1l-.1.3-.2.3v.2l-.1.3v.2l-.2.3v.5l-.1.3-.1.5v.5l-.1.3v.8c0 2.2.8 3.8 2 4.5l4.4 2.5c-1.3-.8-2.1-2.3-2.1-4.6v-.7-.3" fill="url(#B)" transform="translate(27 13)"/><path d="M47 17c4-2.2 7.2-.4 7.2 4 0 4.6-3.1 10-7.1 12.3-4 2.2-7.2.4-7.2-4 0-4.5 3.2-10 7.1-12.3" stroke-opacity=".6" stroke="#7787C3" stroke-width=".5" fill="#D5E0F3"/><g><path d="M55.6 63l-2.9-2.7c-.2-.2-.4-.5-.4-.9V43.2a2.3 2.3 0 0 1 0-.6l.1-.1v-.2a2.7 2.7 0 0 1 .2-.2V42v-.1l.2-.2.1-.1v-.1l.2-.1a3.3 3.3 0 0 1 .3-.4l.2-.1 14.5-8.2a1.8 1.8 0 0 1 .5-.2h.4v.1l1.2 1a9 9 0 0 1 2.2 2.5v16.2a3 3 0 0 1-1.4 2.3l-14.4 8.2c-.4.2-.8.3-1 0v.1z" fill="#FFF"/><path d="M19.6 3.6a1 1 0 0 1 .3 0h.4L17 1h-.4-.2-.1l-.2.1L1.9 9l-.2.1-.2.2-.2.2-.1.1a2 2 0 0 0 0 .1H1v.1l-.2.2v.2l-.1.1v.1H.6V10.8l-.1.1v16.8c0 .4.1.7.4.8L4 31c-.2-.1-.4-.4-.4-.9V14v-.2-.1-.1-.2-.1l.1-.1v-.2H4v-.1l.2-.2v-.2a3.4 3.4 0 0 1 .3-.3l.1-.1.3-.3.2-.1 14.3-7.9a1.6 1.6 0 0 1 .3-.1z" fill="url(#C)" transform="translate(52 32)"/><path d="M19 3.8c.7-.5 1.3-.1 1.3.7v16c0 .8-.5 1.8-1.3 2.2L5 30.8c-.8.4-1.4.1-1.4-.7V14.4c0-.8.6-1.9 1.3-2.3l14-8.3z" stroke="#AEB4C4" stroke-width=".7" fill="url(#D)" transform="translate(52 32)"/><path d="M55.6 63l-2.9-2.5c-.2-.2-.4-.5-.4-.9V43.4a2.3 2.3 0 0 1 0-.7h.1v-.2a2.7 2.7 0 0 1 .2-.2v-.1l.1-.1v-.2h.1l.1-.2.2-.2a3.3 3.3 0 0 1 .3-.3l.3-.1L68 32.9a1.8 1.8 0 0 1 .5-.2h.4l3 2.5c.2.1.4.4.4.9v16.2a3 3 0 0 1-1.4 2.3l-14.4 8.2c-.4.2-.5.4-1 .1z" stroke="#555A6F"/><g transform="rotate(-11 261 -268.4)" fill="url(#E)" fill-rule="nonzero"><path d="M10.7 0L14 2.5l-3.6 6.3-1.3-1 2-3.7-1.9-1.5L10.7 0zM4 2.3l1.3.9L3.3 7l2 1.3L3.8 11 .5 8.8l3.6-6.5z"/></g></g><g><path d="M39.7 73.1L36.4 70l-3.2 3.1H3.7A2.7 2.7 0 0 0 1 76v10.8c0 1.6 1.2 2.8 2.7 2.8h65c1.5 0 2.7-1.2 2.7-2.8V76c0-1.5-1.2-2.8-2.7-2.8h-29z" stroke="#555A6F" fill="#F0F1F7"/><path d="M10.8 77.1h2.8c1.3 0 2.3.4 3 1.1.5.7.8 1.6.8 2.9a4 4 0 0 1-.9 2.8c-.7.7-1.6 1.1-2.9 1.1h-2.8v-7.9zm1.2 1V84h1.4c1 0 1.7-.3 2.2-.7.4-.5.7-1.2.7-2.2 0-1-.3-1.8-.7-2.2-.5-.5-1.2-.7-2.2-.7H12zm9 1c.9 0 1.6.4 2 1 .5.6.8 1.4.8 2.4h-4.3c0 .5.1 1 .4 1.3.3.2.6.4 1.1.4.4 0 .7-.1 1-.3.2-.1.3-.4.5-.7h1.2c-.2.5-.4 1-.8 1.3-.5.4-1.1.7-1.9.7-.8 0-1.5-.3-2-.8a3 3 0 0 1-.8-2.2c0-.9.3-1.6.8-2.2.5-.6 1.1-.8 2-.8zm0 1c-.4 0-.8.1-1 .4a2 2 0 0 0-.5 1.1h3c0-1-.6-1.5-1.5-1.5zm3.2-.8h1.2l1.4 4.2 1.5-4.2h1.2l-2 5.7h-1.2l-2.1-5.7zm8.5-.1c.9 0 1.6.3 2 .9.5.6.8 1.4.8 2.4h-4.3c0 .5.1 1 .4 1.3.3.2.6.4 1.1.4.4 0 .7-.1 1-.3.2-.1.4-.4.5-.7h1.2c-.2.5-.4 1-.8 1.3-.5.4-1.1.7-1.9.7-.8 0-1.5-.3-2-.8a3 3 0 0 1-.8-2.2c0-.9.3-1.6.8-2.2.5-.6 1.1-.8 2-.8zm0 1c-.4 0-.8 0-1 .3a2 2 0 0 0-.5 1.1h3c0-1-.6-1.5-1.5-1.5zm3.9-3.2h1.2v8h-1.2v-8zm5.2 2.2c.9 0 1.6.2 2.1.8.5.6.8 1.3.8 2.2a3 3 0 0 1-.8 2c-.5.7-1.2 1-2 1-1 0-1.6-.3-2.1-1a3 3 0 0 1-.8-2c0-1 .2-1.6.8-2.2.5-.6 1.2-.8 2-.8zm0 1c-.5 0-1 .1-1.2.6-.3.3-.4.8-.4 1.4 0 .5.1 1 .4 1.4.3.4.7.6 1.2.6.6 0 1-.2 1.3-.6.3-.4.4-.9.4-1.4 0-.6-.1-1-.4-1.4-.3-.5-.7-.7-1.3-.7zm6.8-1c.9 0 1.5.3 2 .8.4.6.7 1.3.7 2.2 0 .8-.3 1.5-.7 2-.5.7-1.1 1-2 1-.6 0-1.2-.4-1.7-1v3h-1.1v-7.9h1v.7c.5-.6 1-.8 1.8-.8zm-.1.9c-.6 0-1 .2-1.2.6-.3.4-.4.8-.4 1.4v.1c0 .6.2 1.1.5 1.5.2.3.6.5 1 .5.6 0 1-.2 1.3-.6.2-.3.4-.8.4-1.4 0-.6-.2-1.1-.4-1.5-.3-.4-.7-.6-1.2-.6zm6.3-1c.9 0 1.6.4 2 1 .5.6.8 1.4.8 2.4h-4.3c0 .5.1 1 .4 1.3.3.2.6.4 1.1.4.4 0 .7-.1 1-.3.2-.1.4-.4.5-.7h1.2c-.2.5-.4 1-.8 1.3-.5.4-1.1.7-1.9.7-.8 0-1.5-.3-2-.8a3 3 0 0 1-.8-2.2c0-.9.3-1.6.8-2.2.5-.6 1.1-.8 2-.8zm0 1c-.4 0-.8.1-1 .4a2 2 0 0 0-.5 1.1h3c0-1-.6-1.5-1.5-1.5zm6.4-1l.7.2v1.2l-.8-.2c-.3 0-.7.2-1 .5-.2.3-.4.7-.4 1.2v3h-1.1v-5.7h1.1v.9l.6-.7c.2-.2.5-.3.9-.3z" fill="#000"/></g></g><g><path d="M118.3 87l-4 4-4.1-4H97.4a3.4 3.4 0 0 1-3.4-3.4V66.4c0-1.9 1.5-3.4 3.4-3.4h31.2c1.9 0 3.4 1.5 3.4 3.4v17.2c0 1.9-1.5 3.4-3.4 3.4h-10.3z" fill="#3E519A"/><path d="M102.8 70c1 0 1.7.3 2.3.8a3 3 0 0 1 1.1 1.9H105a2 2 0 0 0-.8-1.2c-.4-.3-.8-.4-1.4-.4-.9 0-1.5.3-2 1-.4.4-.6 1.2-.6 2.1 0 1 .2 1.7.6 2.2.4.6 1.1.9 2 .9.6 0 1-.2 1.5-.5.4-.3.7-.7.8-1.4h1.2c-.2 1-.6 1.7-1.2 2.2-.7.5-1.4.8-2.3.8-1.3 0-2.3-.5-3-1.3-.6-.7-.8-1.7-.8-2.9s.3-2.1.9-2.9c.6-.8 1.6-1.3 2.9-1.3zm7.4 2.3c.8 0 1.5.2 2 .8.6.6.9 1.3.9 2.2a3 3 0 0 1-.8 2.2c-.6.6-1.3.9-2.1.9-1 0-1.6-.3-2.2-1a3 3 0 0 1-.8-2c0-1 .3-1.7.8-2.3.6-.6 1.3-.8 2.2-.8zm0 1c-.6 0-1 .1-1.3.6-.3.3-.4.8-.4 1.4 0 .6 0 1 .4 1.4.3.5.7.7 1.3.7.5 0 1-.2 1.3-.7.2-.3.4-.8.4-1.4 0-.6-.2-1-.4-1.4-.4-.5-.8-.7-1.3-.7zm8.2-3.3h1.2v8.2h-1.1v-.7c-.4.6-1 .9-1.8.9-.9 0-1.5-.3-2-1-.5-.5-.7-1.2-.7-2.1 0-.9.2-1.6.7-2.1.4-.6 1.1-1 2-1 .6 0 1.2.4 1.7 1V70zm-1.5 3.2c-.6 0-1 .2-1.3.6-.3.3-.4.8-.4 1.5 0 .6.1 1.1.4 1.5.2.4.7.6 1.3.6.5 0 .9-.2 1.2-.6.2-.4.4-.9.4-1.4v-.1c0-.7-.2-1.2-.5-1.6-.3-.3-.7-.5-1-.5zm6.6-1c1 0 1.6.4 2.1 1s.7 1.4.7 2.4H122c0 .6.2 1 .5 1.3.2.3.6.5 1.1.5.4 0 .8-.1 1-.3.2-.2.4-.4.5-.8h1.2c0 .6-.3 1-.8 1.4-.5.4-1.1.7-1.9.7-.9 0-1.5-.3-2-.8-.6-.6-.9-1.3-.9-2.3 0-.9.3-1.6.8-2.2.5-.6 1.2-.8 2-.8zm0 1c-.5 0-.8.2-1 .4a2 2 0 0 0-.6 1.1h3.2c-.1-1-.7-1.5-1.6-1.5z" fill="#FFF"/></g><path d="M284.3 72l3.2 2 1-8-13.7.6 4.6 2.7-79.4 46 4.7 2.9L284.3 72z" fill="#3A51C6" opacity=".6"/><g><path d="M173.7 157.1l-3.3-3.1-3.2 3.1h-38.5a2.7 2.7 0 0 0-2.7 2.8v10.8c0 1.6 1.2 2.8 2.7 2.8h86c1.5 0 2.7-1.2 2.7-2.8V160c0-1.5-1.2-2.8-2.7-2.8h-41z" stroke="#555A6F" fill="#F0F1F7"/><path d="M139.3 161c1 0 1.7.2 2.3.7a3 3 0 0 1 1 1.9h-1.1a2 2 0 0 0-.8-1.2c-.4-.2-.8-.4-1.4-.4-.8 0-1.5.3-2 1-.3.4-.5 1.2-.5 2 0 1 .2 1.8.6 2.3.4.5 1 .8 2 .8.5 0 1-.1 1.4-.4.4-.3.6-.8.8-1.4h1.1c-.1.9-.5 1.6-1.2 2.1-.6.5-1.3.8-2.2.8-1.3 0-2.2-.5-2.9-1.3-.5-.7-.8-1.6-.8-2.8 0-1.2.3-2.1.9-2.9.6-.8 1.6-1.2 2.8-1.2zm7.2 2.2c.8 0 1.5.2 2 .8.5.6.8 1.3.8 2.2a3 3 0 0 1-.8 2c-.5.7-1.2 1-2 1-.9 0-1.6-.3-2.1-1a3 3 0 0 1-.8-2c0-1 .3-1.6.8-2.2.5-.6 1.2-.8 2-.8zm0 1c-.6 0-1 .1-1.3.6-.3.3-.4.8-.4 1.4 0 .5.1 1 .4 1.4.3.4.7.6 1.3.6.5 0 1-.2 1.2-.6.3-.4.4-.9.4-1.4 0-.6-.1-1-.4-1.4-.3-.5-.7-.7-1.2-.7zm8-3.2h1.2v8h-1.1v-.7a2 2 0 0 1-1.8.9c-.8 0-1.5-.3-2-1-.4-.5-.6-1.2-.6-2 0-1 .2-1.6.6-2.1.5-.6 1.2-1 2-1 .7 0 1.2.4 1.7 1V161zM153 164c-.5 0-1 .2-1.2.6-.3.3-.4.8-.4 1.4 0 .7.1 1.1.3 1.5.3.4.7.6 1.3.6.5 0 .9-.2 1.2-.6.2-.4.3-.8.3-1.4 0-.7-.1-1.2-.4-1.6-.3-.3-.6-.5-1-.5zm6.4-1c1 0 1.6.4 2.1 1s.7 1.4.7 2.4H158c0 .5.2 1 .4 1.3.3.2.7.4 1.1.4.4 0 .8-.1 1-.3.2-.1.4-.4.5-.7h1.2c-.1.5-.4 1-.8 1.3-.5.4-1.1.7-1.9.7-.8 0-1.5-.3-2-.8a3 3 0 0 1-.7-2.2c0-.9.2-1.6.7-2.2.5-.6 1.2-.8 2-.8zm0 1c-.4 0-.7.1-1 .4a2 2 0 0 0-.5 1.1h3c0-1-.5-1.5-1.5-1.5zm7.6-3.1h1.2v8H167v-8zm3.4 0c.3 0 .5.1.6.3.2.1.2.3.2.5s0 .4-.2.6l-.6.2c-.2 0-.4 0-.5-.2a.8.8 0 0 1-.3-.6c0-.2.1-.4.3-.5.1-.2.3-.3.5-.3zm-.6 2.3h1.2v5.7h-1.2v-5.7zm2.8-2.3h1.2v3.2c.4-.7 1-1 1.7-1 .8 0 1.4.3 2 .9.3.5.6 1.2.6 2 0 .9-.3 1.6-.7 2.2-.5.6-1.1.9-2 .9a2 2 0 0 1-1.7-.9v.7h-1.1v-8zm2.6 3.1c-.4 0-.8.2-1 .5-.3.4-.5.9-.5 1.5v.1c0 .6.1 1 .4 1.4.3.4.7.6 1.2.6s1-.2 1.2-.6c.2-.4.4-.8.4-1.5 0-.6-.2-1-.4-1.4-.3-.4-.7-.6-1.3-.6zm6.6-1l.7.2v1.2l-.8-.2c-.3 0-.7.2-1 .5-.2.3-.4.7-.4 1.2v3h-1.1v-5.7h1.1v.9l.6-.7c.2-.2.6-.3 1-.3zm4 0c.9 0 1.5.3 1.9.7.3.3.5.9.5 1.6v3.6h-1v-.8l-1 .7a3 3 0 0 1-1.2.3 2 2 0 0 1-1.4-.5c-.4-.3-.6-.7-.6-1.2 0-.6.3-1 .8-1.4.5-.4 1.1-.5 2-.5h1.2v-.3c0-.8-.4-1.2-1.3-1.2-.3 0-.6 0-.8.2a1 1 0 0 0-.5.7h-1.2c.1-.7.4-1.2 1-1.5.3-.2 1-.3 1.6-.3zm1.2 3.3h-1.2c-1 0-1.6.4-1.6 1.1 0 .2.1.4.3.5.2.2.4.3.7.3.5 0 1-.2 1.3-.5.3-.3.5-.7.5-1.1v-.3zm5.2-3.2l.7.1v1.2l-.8-.2c-.4 0-.7.2-1 .5-.3.3-.4.7-.4 1.2v3h-1.2v-5.7h1.2v.9c.1-.3.3-.6.5-.7.3-.2.6-.3 1-.3zm2.2-2.2c.3 0 .5.1.6.3.2.1.2.3.2.5s0 .4-.2.6l-.6.2c-.2 0-.4 0-.5-.2a.8.8 0 0 1-.3-.6c0-.2.1-.4.3-.5.1-.2.3-.3.5-.3zm-.5 2.3h1.1v5.7H194v-5.7zm5.1-.1c1 0 1.6.3 2.1 1 .5.5.7 1.3.7 2.3h-4.3c0 .5.2 1 .4 1.3.3.2.7.4 1.1.4.4 0 .8-.1 1-.3.2-.1.4-.4.5-.7h1.2c-.1.5-.4 1-.8 1.3-.5.4-1.1.7-1.9.7-.8 0-1.5-.3-2-.8a3 3 0 0 1-.7-2.2c0-.9.2-1.6.7-2.2.5-.6 1.2-.8 2-.8zm0 1c-.4 0-.7 0-1 .3a2 2 0 0 0-.5 1.1h3c0-1-.5-1.5-1.5-1.5zm6-1c1.4 0 2.2.6 2.3 1.8h-1.1c0-.4-.2-.6-.4-.7l-.9-.2c-.4 0-.6 0-.8.2-.2 0-.3.3-.3.5s.2.3.5.5l1.1.3 1.4.6c.5.2.7.6.7 1.1 0 1.2-.8 1.9-2.5 1.9-1.6 0-2.4-.7-2.5-2h1.1c0 .3.2.6.4.8l1 .2c.9 0 1.3-.3 1.3-.8 0-.2-.1-.5-.5-.6l-1.1-.4-1.4-.4c-.5-.3-.7-.7-.7-1.2s.2-1 .6-1.2c.5-.3 1-.4 1.7-.4z" fill="#000"/><g transform="translate(143 103)"><path fill="url(#c)" opacity=".2" d="M23 47.6l53.8.7L51.5 28z"/><ellipse fill="url(#d)" cx="27" cy="16.2" rx="27" ry="15.2"/><path d="M54 14v20c-.9 8.1-12.6 14.6-27 14.6S.9 42 0 34V14v1c0 8.5 12 15.4 27 15.4s27-7 27-15.5V14z" fill="url(#e)"/><path d="M1 26c0 8.2 11.8 14.8 26.3 14.8S53.6 34.2 53.6 26" stroke="#7D849E" stroke-width=".7" opacity=".4"/><path d="M54 15.2v19.6C53 42.8 41.4 49 27 49S.9 42.7 0 34.8V15.2C1 7.2 12.6 1 27 1s26.1 6.3 27 14.2z" stroke="#555A6F" stroke-width="1.5"/><g fill="#A5ADC1"><path d="M4.3 26.4l2 1.7v4l-2-1.8z"/><path opacity=".5" d="M8.5 29.2l2.2 1.7v4l-2.2-1.7z"/></g><path d="M23.2 7.9l.4-.3 10.1.8 4 .4.6 2.4 1.4 6.2-1.4.8L28 24.7c-.6.3-1.2.4-2 .4-.7 0-1.4-.1-2-.4l-12-7.5c-1.2-.6-1.2-1.7-.1-2.4l10.5-6.4-4.5-.4.2-1 15.7 1.4-10-.8-.5.3zm15.1 3.3l2.3 9.6-1.6.2-.7-2.8 1.4-.8-1.4-6.2zm-11.8 1.1l.2 1-4.5.3-.4 2.7H20l.5-3.7 6-.3zm5 3L31 19l-5.9.3-.1-1 4.4-.3.4-2.7h1.7zM26.7 24L37.9 17l-1.6-7.3-12-1L13 15.6c-.4.2-.4.7 0 1L25 23.8c.2.2.5.2.8.2.3 0 .6 0 .8-.2z" fill="url(#F)" fill-rule="nonzero"/></g></g><g><path d="M229 96l-4 4-4-4h-36.6a3.4 3.4 0 0 1-3.4-3.4V75.4c0-1.9 1.5-3.4 3.4-3.4h78c1.9 0 3.4 1.5 3.4 3.4v17.2c0 1.9-1.5 3.4-3.4 3.4H229z" fill="#3E519A"/><path d="M188.5 79c1 0 1.7.3 2.3.8a3 3 0 0 1 1 1.9h-1.1a2 2 0 0 0-.8-1.2c-.4-.3-.8-.4-1.4-.4-.9 0-1.5.3-2 1-.4.4-.6 1.2-.6 2.1 0 1 .2 1.7.6 2.2.4.6 1.1.9 2 .9.6 0 1-.2 1.5-.5.4-.3.6-.7.8-1.4h1.2c-.2 1-.6 1.7-1.3 2.2-.6.5-1.3.8-2.2.8-1.3 0-2.3-.5-3-1.3-.5-.7-.8-1.7-.8-2.9s.3-2.1.9-2.9c.7-.8 1.6-1.3 2.9-1.3zm7.3 2.3c.8 0 1.5.2 2 .8.6.6.9 1.3.9 2.2a3 3 0 0 1-.8 2.2c-.6.6-1.3.9-2.1.9-1 0-1.6-.3-2.2-1a3 3 0 0 1-.7-2c0-1 .2-1.7.8-2.3.5-.6 1.2-.8 2-.8zm0 1c-.6 0-1 .1-1.3.6-.3.3-.4.8-.4 1.4 0 .6.1 1 .4 1.4.3.5.7.7 1.3.7.5 0 1-.2 1.3-.7.2-.3.4-.8.4-1.4 0-.6-.2-1-.4-1.4-.4-.5-.8-.7-1.3-.7zM204 79h1.1v8.2h-1v-.7a2 2 0 0 1-1.9.9c-.8 0-1.5-.3-2-1-.4-.5-.6-1.2-.6-2.1 0-.9.2-1.6.6-2.1.5-.6 1.2-1 2-1 .7 0 1.3.4 1.8 1V79zm-1.5 3.2c-.6 0-1 .2-1.3.6-.3.3-.4.8-.4 1.5 0 .6 0 1.1.3 1.5.3.4.7.6 1.3.6.5 0 1-.2 1.2-.6.3-.4.4-.9.4-1.4v-.1c0-.7-.2-1.2-.5-1.6-.3-.3-.6-.5-1-.5zm6.4-1c1 0 1.7.4 2.2 1 .4.6.7 1.4.7 2.4h-4.4c0 .6.2 1 .5 1.3.2.3.6.5 1 .5.5 0 .8-.1 1-.3.3-.2.4-.4.6-.8h1.2c-.1.6-.4 1-.8 1.4-.5.4-1.1.7-2 .7-.8 0-1.5-.3-2-.8-.5-.6-.8-1.3-.8-2.3 0-.9.3-1.6.8-2.2.5-.6 1.2-.8 2-.8zm0 1c-.4 0-.7.2-1 .4a2 2 0 0 0-.5 1.1h3.1c0-1-.6-1.5-1.5-1.5zm9.4-2.7v2h1.3v.9h-1.3V86.1l.4.1h.8v1h-1c-.5 0-.9-.1-1-.4-.3-.2-.4-.6-.4-1v-3.4h-1v-1h1V80l1.2-.5zm5 1.8c.8 0 1.5.2 2 .8.5.6.8 1.3.8 2.2a3 3 0 0 1-.8 2.2c-.5.6-1.2.9-2 .9-1 0-1.7-.3-2.2-1a3 3 0 0 1-.8-2c0-1 .3-1.7.8-2.3.5-.6 1.3-.8 2.1-.8zm0 1c-.6 0-1 .1-1.4.6-.2.3-.3.8-.3 1.4 0 .6 0 1 .3 1.4.4.5.8.7 1.3.7.6 0 1-.2 1.3-.7.3-.3.4-.8.4-1.4 0-.6-.1-1-.4-1.4-.3-.5-.7-.7-1.3-.7zm8.5-3.2c.3 0 .5 0 .6.2.2.2.2.4.2.6 0 .2 0 .4-.2.6l-.6.2c-.2 0-.4 0-.6-.2a.8.8 0 0 1-.2-.6c0-.2 0-.4.2-.6l.6-.2zm-.6 2.3h1.2v5.8h-1.2v-5.8zm5.6-.1c.8 0 1.5.3 1.8 1l.8-.8a2 2 0 0 1 1-.2c.6 0 1.1.1 1.5.5.4.4.6 1 .6 1.6v3.8h-1.2v-3.6c0-.5-.1-.8-.3-1-.2-.2-.5-.4-1-.4a1 1 0 0 0-.8.4c-.2.3-.3.6-.3 1v3.6h-1.2v-3.6c0-.9-.4-1.4-1.2-1.4-.4 0-.7.2-1 .5-.2.3-.3.6-.3 1v3.5H234v-5.8h1.2v.6a2 2 0 0 1 1.6-.7zm9.6 0c.9 0 1.5.2 2 .6.3.4.5.9.5 1.6v3.7h-1.1v-.8l-.9.7c-.4.2-.8.3-1.3.3a2 2 0 0 1-1.4-.5c-.4-.3-.6-.7-.6-1.2 0-.6.3-1.1.8-1.5.5-.3 1.1-.5 2-.5h1.3v-.3c0-.8-.5-1.2-1.3-1.2-.4 0-.7 0-1 .2a1 1 0 0 0-.4.7h-1.2a2 2 0 0 1 1-1.5c.3-.2 1-.3 1.6-.3zm1.3 3.2h-1.2c-1.1 0-1.7.5-1.7 1.2 0 .2.1.4.3.5.2.2.4.2.7.2.5 0 1-.1 1.3-.4.4-.3.6-.7.6-1.1v-.4zm5-3.2a2 2 0 0 1 1.7.9v-.8h1.2v5.4c0 1.9-1 2.8-2.7 2.8-.8 0-1.4-.2-1.9-.5-.4-.3-.7-.8-.8-1.4h1.2c0 .3.2.6.4.7.3.2.6.2 1 .2 1 0 1.6-.5 1.6-1.6v-.9c-.4.6-1 1-1.8 1s-1.4-.3-1.9-.8a3 3 0 0 1-.7-2.1c0-.9.2-1.6.7-2.1.5-.6 1.1-.8 2-.8zm0 1c-.4 0-.8 0-1 .4-.4.4-.5.9-.5 1.5 0 .5.1 1 .3 1.3.3.4.7.6 1.3.6.5 0 .9-.2 1.2-.5.3-.4.4-.8.4-1.4 0-.6-.1-1.1-.4-1.5-.3-.3-.7-.5-1.2-.5zm6.7-1c1 0 1.6.3 2.1 1 .5.5.7 1.3.7 2.3h-4.4c0 .6.2 1 .5 1.3.3.3.6.5 1.1.5.4 0 .8-.1 1-.3.2-.2.4-.4.5-.8h1.2c-.1.6-.4 1-.8 1.4-.5.4-1.1.7-1.9.7-.8 0-1.5-.3-2-.8-.6-.6-.8-1.3-.8-2.3 0-.9.2-1.6.7-2.2.5-.6 1.2-.8 2-.8zm0 1c-.4 0-.8 0-1 .3a2 2 0 0 0-.5 1.1h3c0-1-.6-1.5-1.5-1.5z" fill="#FFF"/></g><path d="M368.3 82.1l3.3-1.9 1 8-13.8-.7 4.7-2.6-27.5-16 4.7-2.9 27.6 16.1z" fill="#3A51C6" opacity=".6"/><g><path d="M312.7 75.1l-3.3-3.1-3.2 3.1h-13.5A2.7 2.7 0 0 0 290 78v10.8c0 1.6 1.2 2.8 2.7 2.8h35c1.5 0 2.7-1.2 2.7-2.8V78c0-1.5-1.2-2.8-2.7-2.8h-15z" stroke="#555A6F" fill="#F0F1F7"/><path d="M301.4 79c1 0 1.7.2 2.2.6.5.4.8 1 1 1.9h-1.3c0-.5-.3-1-.6-1.1-.3-.3-.7-.4-1.3-.4-.5 0-1 .1-1.2.3-.4.1-.5.4-.5.8s.2.6.6.9l1.3.4c1 .4 1.8.6 2 .8.8.4 1.1 1 1.1 1.7a2 2 0 0 1-.8 1.7c-.6.4-1.3.6-2.3.6-1 0-1.7-.2-2.3-.6-.6-.5-1-1.2-1-2.2h1.1c.1.6.3 1 .7 1.3.3.3.8.4 1.5.4.6 0 1-.1 1.4-.3.3-.2.5-.5.5-.8 0-.5-.2-.8-.7-1-.2-.2-.7-.3-1.6-.6a14 14 0 0 1-1.8-.6c-.6-.4-1-1-1-1.6 0-.7.4-1.3 1-1.6.5-.4 1.2-.6 2-.6zm3.7.1h1.3l1.6 6.2 1.6-6.2h1.3l1.6 6.2 1.6-6.2h1.3l-2.3 7.9H312l-1.6-6-1.7 6h-1.3l-2.2-7.9zm11.1 0h3.5a3 3 0 0 1 1.9.6c.5.4.7 1 .7 1.7 0 .4 0 .8-.3 1-.3.4-.6.7-1 .8.7.2 1 .6 1.2 1.4v1.2c.1.5.3 1 .5 1.2h-1.2a2 2 0 0 1-.4-1v-1c-.1-.5-.3-.8-.5-1-.2-.2-.6-.2-1-.2h-2.2V87h-1.2v-7.9zm1.2 1v2.6h2.2c.5 0 .9 0 1.1-.3.3-.2.4-.5.4-1 0-.4-.1-.7-.3-1l-1.3-.2h-2z" fill="#000"/><g><path fill="url(#g)" opacity=".2" d="M25 45.6l53.8.7L53.5 26z" transform="translate(284 23)"/><path fill="#F7FAFF" fill-rule="nonzero" d="M292.3 51.6V65L285 49.2V35.8z"/><g transform="translate(285 24)"><path d="M47.3 4.1L54.9 20 34.8 31.6 7.3 27.3 0 11.3 20 0z" fill="url(#h)" fill-rule="nonzero"/><mask id="H" fill="#fff"><use xlink:href="#G"/></mask><use fill="url(#h)" xlink:href="#G"/><g mask="url(#H)" fill="url(#I)" fill-rule="nonzero"><path d="M20.5 11.7l3.3 2 3.3-2.3-3-1.9h-.3l-3.3 2.2zm7.6.3l-3.3 2.3 8.2 5 3.5-2.3-4.2-2.5-7.8 5.6 3.8 2.3 3.7-2.5-8.1-5-3.6 2.6 3.3 2 7.7-5.6-3.2-2zm5 8.5L29.3 23l3 1.7h.2l3.7-2.3-3.1-1.9zM19.3 17l3.6-2.5-3.2-2-3.8 2.5 3.4 2zm-4.4-2.6l3.8-2.5-3.3-2h-.2l-3.8 2.4 3.5 2zm18.4-.4l4.1 2.5 3-2-3.9-2.3h-.3l-2.9 1.8zm-1-.6l3.4-2c.4-.4 1-.3 1.4-.1l4.2 2.6c.6.3.6 1 0 1.4L34 19.9l3 1.8c.7.4.7 1 .1 1.4l-4 2.5c-.4.3-1 .3-1.4 0L10.6 13c-.6-.4-.6-1 0-1.4l4-2.5c.4-.3 1-.3 1.4 0l3.5 2.1 3.7-2.5c.4-.2 1-.2 1.4 0l7.7 4.7z"/></g></g><path fill="#C2CBD9" d="M339.7 44v13.2l-20 11.5V55.4z"/><g fill="#858FA8"><path d="M337.9 53V55l-1.9.9V54zM334.2 54.9v1.8l-1.8 1v-1.9z"/><path opacity=".5" d="M331.5 56.7v1.8l-1.8 1v-1.9z"/></g><path fill="url(#l)" d="M35.8 32.5v13.2L8.3 41.5V28.2z" transform="translate(284 23)"/><g fill="#858FA8"><path d="M316.5 63.4v2.7l-1.9-.3v-2.7zM313.5 63.2v2.4l-1.8-.3v-2.4z"/><path opacity=".5" d="M310.6 62.4V65l-1.8-.3v-2.4z"/></g><path stroke="#A6AEC1" stroke-width=".7" d="M339.7 44.2l-20 11.6-27.3-4.2-7.5-16.2"/><path stroke="#7D849E" stroke-width=".7" opacity=".4" d="M339.7 50.6l-20 11.6-27.3-4.3-7.7-16.4M320.1 55.8v13M292 64.6l.3-13"/><path stroke="#555A6F" stroke-width="1.5" d="M284.5 48.8V35.2l20.3-11.7 27.8 4.2 7.5 16v13.7l-20.3 11.8-27.8-4.3-7.5-16z"/></g></g></g></svg>